<?xml version="1.0" encoding="UTF-8" standalone="no"?>
<!-- Created with Inkscape (http://www.inkscape.org/) -->

<svg
   version="1.1"
   id="svg2"
   xml:space="preserve"
   width="69.682419"
   height="75.372116"
   viewBox="0 0 69.682419 75.372115"
   xmlns="http://www.w3.org/2000/svg"
   xmlns:svg="http://www.w3.org/2000/svg"><defs
     id="defs6"><clipPath
       clipPathUnits="userSpaceOnUse"
       id="clipPath16"><path
         d="M 0,89.708 H 418.485 V 0 H 0 Z"
         id="path14" /></clipPath></defs><g
     id="g8"
     transform="matrix(1.3333333,0,0,-1.3333333,-43.850405,95.101522)"><g
       id="g10"><g
         id="g12"
         clip-path="url(#clipPath16)"><g
           id="g18"
           transform="translate(54.3804,66.3887)"><path
             d="M 7.789998e-4,0 C 0.099779,-2.625 2.308779,-4.673 4.933779,-4.573 c 2.626,0.099 4.673,2.307 4.574,4.933 -0.1,2.625 -2.308,4.673 -4.933,4.574 -2.626,-0.1 -4.674,-2.309 -4.5740000002,-4.934"
             style="fill:#f9a01b;fill-opacity:1;fill-rule:nonzero;stroke:none"
             id="path20" /></g><g
           id="g22"
           transform="translate(70.6221,28.8931)"><path
             d="m 0.00333152,0 c 0.1,-2.625 2.30800008,-4.673 4.93300008,-4.574 2.626,0.099 4.673,2.308 4.574,4.933 -0.099,2.626 -2.308,4.673 -4.933,4.574 C 1.9513316,4.834 -0.09566848,2.625 0.00333152,0"
             style="fill:#f9a01b;fill-opacity:1;fill-rule:nonzero;stroke:none"
             id="path24" /></g><g
           id="g26"
           transform="translate(74.8594,44.2423)"><path
             d="m 0.0042975,0 c 0.099,-2.625 2.3079999,-4.673 4.9329999,-4.574 2.626,0.099 4.673,2.308 4.574,4.933 -0.1,2.626 -2.308,4.673 -4.933,4.574 C 1.9522974,4.834 -0.0957025,2.625 0.0042975,0"
             style="fill:#f9a01b;fill-opacity:1;fill-rule:nonzero;stroke:none"
             id="path28" /></g><g
           id="g30"
           transform="translate(67.8916,58.2808)"><path
             d="m 0.0038997,0 c 0.099,-2.625 2.3080001,-4.673 4.9330001,-4.574 2.625,0.099 4.673,2.308 4.574,4.933 -0.1,2.626 -2.308,4.673 -4.934,4.574 C 1.9518998,4.833 -0.0961003,2.625 0.0038997,0"
             style="fill:#f9a01b;fill-opacity:1;fill-rule:nonzero;stroke:none"
             id="path32" /></g><g
           id="g34"
           transform="translate(65.3003,35.3707)"><path
             d="m 0.01889098,0 c 0.072,-1.907 1.67700002,-3.395 3.58300002,-3.322 1.908,0.072 3.395,1.676 3.323,3.583 -0.072,1.907 -1.677,3.395 -3.584,3.322 C 1.434891,3.511 -0.05310902,1.907 0.01889098,0"
             style="fill:#f9a01b;fill-opacity:1;fill-rule:nonzero;stroke:none"
             id="path36" /></g><g
           id="g38"
           transform="translate(60.9028,53.4537)"><path
             d="m 0.01865368,0 c 0.072,-1.907 1.67699992,-3.395 3.58399992,-3.322 1.907,0.072 3.395,1.676 3.322,3.583 -0.072,1.907 -1.677,3.395 -3.583,3.322 C 1.4346536,3.511 -0.05334632,1.907 0.01865368,0"
             style="fill:#f9a01b;fill-opacity:1;fill-rule:nonzero;stroke:none"
             id="path40" /></g><g
           id="g42"
           transform="translate(80.0581,35.5606)"><path
             d="M 6.057676e-4,0 C 0.05360576,-1.405 1.2366058,-2.501 2.6416058,-2.448 c 1.405,0.053 2.502,1.236 2.448,2.641 -0.053,1.405 -1.235,2.501 -2.64,2.448 C 1.0436058,2.588 -0.05239424,1.406 6.057676e-4,0"
             style="fill:#f9a01b;fill-opacity:1;fill-rule:nonzero;stroke:none"
             id="path44" /></g><g
           id="g46"
           transform="translate(68.7871,41.8004)"><path
             d="m 0.01870746,0 c 0.053,-1.405 1.23599994,-2.501 2.64099994,-2.448 1.405,0.053 2.502,1.235 2.448,2.64 -0.053,1.406 -1.235,2.502 -2.641,2.449 C 1.0617074,2.588 -0.03429254,1.405 0.01870746,0"
             style="fill:#f9a01b;fill-opacity:1;fill-rule:nonzero;stroke:none"
             id="path48" /></g><g
           id="g50"
           transform="translate(65.9292,66.8258)"><path
             d="M 5.3146786e-5,0 C 0.05305314,-1.405 1.2360532,-2.501 2.6410532,-2.448 c 1.405,0.053 2.502,1.235 2.448,2.64 -0.053,1.406 -1.235,2.502 -2.64,2.449 C 1.0430532,2.588 -0.05294686,1.405 5.3146786e-5,0"
             style="fill:#f9a01b;fill-opacity:1;fill-rule:nonzero;stroke:none"
             id="path52" /></g><g
           id="g54"
           transform="translate(61.9614,42.5338)"><path
             d="m 0.02938228,0 c 0.053,-1.405 1.23499992,-2.501 2.64099992,-2.448 1.405,0.053 2.502,1.235 2.448,2.64 -0.053,1.406 -1.235,2.502 -2.641,2.449 C 1.0723822,2.588 -0.02361772,1.405 0.02938228,0"
             style="fill:#f9a01b;fill-opacity:1;fill-rule:nonzero;stroke:none"
             id="path56" /></g><g
           id="g58"
           transform="translate(54.0122,51.7813)"><path
             d="m 0.02275154,0 c 0.053,-1.405 1.23500006,-2.501 2.64100006,-2.448 1.405,0.052 2.502,1.235 2.448,2.64 -0.053,1.406 -1.235,2.502 -2.641,2.449 C 1.0657516,2.588 -0.03024846,1.405 0.02275154,0"
             style="fill:#f9a01b;fill-opacity:1;fill-rule:nonzero;stroke:none"
             id="path60" /></g><g
           id="g62"
           transform="translate(56.6743,58.0728)"><path
             d="m 0.01191748,0 c 0.053,-1.405 1.23499992,-2.501 2.64099992,-2.448 1.405,0.053 2.502,1.235 2.448,2.64 -0.053,1.406 -1.235,2.502 -2.641,2.449 C 1.0549174,2.588 -0.04108252,1.405 0.01191748,0"
             style="fill:#f9a01b;fill-opacity:1;fill-rule:nonzero;stroke:none"
             id="path64" /></g><g
           id="g66"
           transform="translate(49.4507,61.9727)"><path
             d="m 0.00355948,0 c 0.053,-1.405 1.23599992,-2.501 2.64099992,-2.448 1.405,0.052 2.502,1.235 2.448,2.64 -0.053,1.406 -1.235,2.502 -2.641,2.449 C 1.0465594,2.588 -0.04944052,1.405 0.00355948,0"
             style="fill:#f9a01b;fill-opacity:1;fill-rule:nonzero;stroke:none"
             id="path68" /></g><g
           id="g70"
           transform="translate(70.3652,49.5396)"><path
             d="m 0.01262088,0 c 0.053,-1.405 1.23499992,-2.501 2.64099992,-2.449 1.405,0.053 2.501,1.236 2.448,2.641 -0.053,1.406 -1.235,2.502 -2.641,2.449 C 1.0556208,2.587 -0.04037912,1.405 0.01262088,0"
             style="fill:#f9a01b;fill-opacity:1;fill-rule:nonzero;stroke:none"
             id="path72" /></g><g
           id="g74"
           transform="translate(66.3062,28.7296)"><path
             d="m 0.01050714,0 c 0.03,-0.786 0.691,-1.399 1.47800006,-1.37 0.786,0.03 1.399,0.692 1.369,1.478 -0.03,0.786 -0.691,1.399 -1.477,1.37 C 0.59350714,1.448 -0.01949286,0.786 0.01050714,0"
             style="fill:#f9a01b;fill-opacity:1;fill-rule:nonzero;stroke:none"
             id="path76" /></g><g
           id="g78"
           transform="translate(66.6519,47.7364)"><path
             d="m 0.0222032,0 c 0.029,-0.786 0.691,-1.399 1.477,-1.37 0.787,0.03 1.399,0.691 1.37,1.478 -0.03,0.786 -0.691,1.399 -1.477,1.37 -0.787,-0.03 -1.4,-0.692 -1.37,-1.478"
             style="fill:#f9a01b;fill-opacity:1;fill-rule:nonzero;stroke:none"
             id="path80" /></g><g
           id="g82"
           transform="translate(59.9585,47.483)"><path
             d="m 0.02921392,0 c 0.03,-0.786 0.691,-1.399 1.47800008,-1.37 0.786,0.03 1.399,0.692 1.369,1.478 -0.03,0.786 -0.691,1.399 -1.477,1.37 C 0.61221392,1.448 -7.8607572e-4,0.786 0.02921392,0"
             style="fill:#f9a01b;fill-opacity:1;fill-rule:nonzero;stroke:none"
             id="path84" /></g><g
           id="g86"
           transform="translate(75.3833,36.5328)"><path
             d="m 0.00689458,0 c 0.03,-0.787 0.691,-1.4 1.47800002,-1.37 0.786,0.03 1.399,0.691 1.369,1.477 -0.03,0.787 -0.691,1.4 -1.477,1.37 C 0.58989458,1.447 -0.02310542,0.786 0.00689458,0"
             style="fill:#f9a01b;fill-opacity:1;fill-rule:nonzero;stroke:none"
             id="path88" /></g><g
           id="g90"
           transform="translate(76.8848,52.6466)"><path
             d="m 0.0029751,0 c 0.03,-0.786 0.691,-1.399 1.4779999,-1.37 0.786,0.03 1.399,0.692 1.369,1.478 -0.03,0.786 -0.691,1.399 -1.477,1.37 C 0.5859751,1.448 -0.0270249,0.786 0.0029751,0"
             style="fill:#f9a01b;fill-opacity:1;fill-rule:nonzero;stroke:none"
             id="path92" /></g><g
           id="g94"
           transform="translate(64.0669,61.9952)"><path
             d="m 0.00423502,0 c 0.03,-0.786 0.691,-1.399 1.47799998,-1.37 0.786,0.03 1.399,0.691 1.369,1.477 -0.03,0.787 -0.691,1.4 -1.477,1.371 C 0.58723502,1.448 -0.02576498,0.786 0.00423502,0"
             style="fill:#f9a01b;fill-opacity:1;fill-rule:nonzero;stroke:none"
             id="path96" /></g><g
           id="g98"
           transform="translate(49.5449,67.9205)"><path
             d="m 0,0 c 0.03,-0.787 0.691,-1.399 1.477,-1.37 0.787,0.03 1.4,0.691 1.37,1.477 C 2.817,0.894 2.156,1.507 1.37,1.477 0.583,1.448 -0.03,0.786 0,0"
             style="fill:#f9a01b;fill-opacity:1;fill-rule:nonzero;stroke:none"
             id="path100" /></g><g
           id="g102"
           transform="translate(63.6567,19.7345)"><path
             d="m 0.0011766,0 c -0.099,2.625 -2.308,4.673 -4.933,4.573 -2.626,-0.099 -4.673,-2.307 -4.574,-4.933 0.099,-2.625 2.308,-4.673 4.933,-4.574 2.626,0.1 4.673,2.309 4.574,4.934"
             style="fill:#687176;fill-opacity:1;fill-rule:nonzero;stroke:none"
             id="path104" /></g><g
           id="g106"
           transform="translate(47.415,57.2301)"><path
             d="m 0.00208034,0 c -0.1,2.625 -2.30799994,4.673 -4.93399994,4.574 -2.625,-0.099 -4.672,-2.308 -4.573,-4.933 0.099,-2.626 2.308,-4.673 4.933,-4.574 2.626,0.1 4.67299994,2.308 4.57399994,4.933"
             style="fill:#687176;fill-opacity:1;fill-rule:nonzero;stroke:none"
             id="path108" /></g><g
           id="g110"
           transform="translate(43.1777,41.8809)"><path
             d="m 0.0030904,0 c -0.099,2.625 -2.308,4.673 -4.933,4.574 -2.626,-0.099 -4.673,-2.308 -4.574,-4.933 0.099,-2.626 2.308,-4.673 4.933,-4.574 2.626,0.1 4.673,2.308 4.574,4.933"
             style="fill:#687176;fill-opacity:1;fill-rule:nonzero;stroke:none"
             id="path112" /></g><g
           id="g114"
           transform="translate(50.1455,27.8428)"><path
             d="m 0.0036207,0 c -0.099,2.625 -2.3079999,4.673 -4.9329999,4.573 -2.626,-0.099 -4.673,-2.308 -4.574,-4.933 0.1,-2.625 2.308,-4.673 4.934,-4.574 2.625,0.1 4.6729999,2.309 4.5729999,4.934"
             style="fill:#687176;fill-opacity:1;fill-rule:nonzero;stroke:none"
             id="path116" /></g><g
           id="g118"
           transform="translate(52.7368,50.7525)"><path
             d="m 0.01662364,0 c -0.072,1.907 -1.67700004,3.395 -3.58300004,3.322 -1.908,-0.072 -3.395,-1.676 -3.323,-3.583 0.072,-1.907 1.677,-3.395 3.584,-3.322 1.906,0.072 3.39400004,1.676 3.32200004,3.583"
             style="fill:#687176;fill-opacity:1;fill-rule:nonzero;stroke:none"
             id="path120" /></g><g
           id="g122"
           transform="translate(57.1338,32.6695)"><path
             d="m 0.01880162,0 c -0.072,1.907 -1.67600002,3.395 -3.58300002,3.322 -1.907,-0.072 -3.395,-1.676 -3.323,-3.583 0.073,-1.907 1.677,-3.395 3.584,-3.322 1.907,0.072 3.39400002,1.676 3.32200002,3.583"
             style="fill:#687176;fill-opacity:1;fill-rule:nonzero;stroke:none"
             id="path124" /></g><g
           id="g126"
           transform="translate(37.9785,50.5626)"><path
             d="M 1.4827485e-4,0 C -0.05285172,1.405 -1.2348518,2.501 -2.6408518,2.448 c -1.405,-0.053 -2.501,-1.236 -2.448,-2.641 0.053,-1.405 1.235,-2.501 2.641,-2.448 1.405,0.053 2.50100008,1.235 2.44800007485,2.641"
             style="fill:#687176;fill-opacity:1;fill-rule:nonzero;stroke:none"
             id="path128" /></g><g
           id="g130"
           transform="translate(49.25,44.3228)"><path
             d="m 0.01663946,0 c -0.053,1.405 -1.23600006,2.501 -2.64100006,2.448 -1.405,-0.053 -2.502,-1.235 -2.448,-2.64 0.053,-1.406 1.235,-2.502 2.64,-2.449 1.406,0.053 2.50200006,1.236 2.44900006,2.641"
             style="fill:#687176;fill-opacity:1;fill-rule:nonzero;stroke:none"
             id="path132" /></g><g
           id="g134"
           transform="translate(52.1074,19.2974)"><path
             d="M 8.6521794e-5,0 C -0.05291348,1.405 -1.2349134,2.501 -2.6409134,2.448 c -1.405,-0.053 -2.501,-1.235 -2.448,-2.64 0.053,-1.406 1.235,-2.502 2.641,-2.449 1.405,0.053 2.50099992,1.236 2.447999921794,2.641"
             style="fill:#687176;fill-opacity:1;fill-rule:nonzero;stroke:none"
             id="path136" /></g><g
           id="g138"
           transform="translate(56.0757,43.5894)"><path
             d="m 0.02812768,0 c -0.053,1.405 -1.23600008,2.501 -2.64100008,2.448 -1.405,-0.053 -2.502,-1.235 -2.448,-2.64 0.053,-1.406 1.235,-2.502 2.641,-2.449 1.405,0.053 2.50100008,1.236 2.44800008,2.641"
             style="fill:#687176;fill-opacity:1;fill-rule:nonzero;stroke:none"
             id="path140" /></g><g
           id="g142"
           transform="translate(64.0249,34.3419)"><path
             d="m 0.02422136,0 c -0.053,1.405 -1.23599996,2.501 -2.64099996,2.448 -1.405,-0.052 -2.502,-1.235 -2.448,-2.64 0.053,-1.406 1.235,-2.502 2.641,-2.449 1.405,0.053 2.50099996,1.236 2.44799996,2.641"
             style="fill:#687176;fill-opacity:1;fill-rule:nonzero;stroke:none"
             id="path144" /></g><g
           id="g146"
           transform="translate(61.3628,28.0504)"><path
             d="m 0.01303418,0 c -0.053,1.405 -1.23499998,2.501 -2.64099998,2.448 -1.405,-0.053 -2.502,-1.235 -2.448,-2.64 0.053,-1.406 1.235,-2.502 2.641,-2.449 1.405,0.053 2.50099998,1.236 2.44799998,2.641"
             style="fill:#687176;fill-opacity:1;fill-rule:nonzero;stroke:none"
             id="path148" /></g><g
           id="g150"
           transform="translate(68.5864,24.1505)"><path
             d="m 0.0047558,0 c -0.053,1.405 -1.236,2.501 -2.641,2.448 -1.405,-0.052 -2.502,-1.235 -2.448,-2.64 0.053,-1.406 1.235,-2.502 2.64,-2.449 1.406,0.053 2.502,1.236 2.449,2.641"
             style="fill:#687176;fill-opacity:1;fill-rule:nonzero;stroke:none"
             id="path152" /></g><g
           id="g154"
           transform="translate(47.6719,36.5836)"><path
             d="m 0.01137646,0 c -0.053,1.406 -1.23500006,2.502 -2.64100006,2.449 -1.405,-0.053 -2.502,-1.236 -2.448,-2.641 0.053,-1.406 1.235,-2.502 2.641,-2.449 1.405,0.054 2.50100006,1.236 2.44800006,2.641"
             style="fill:#687176;fill-opacity:1;fill-rule:nonzero;stroke:none"
             id="path156" /></g><g
           id="g158"
           transform="translate(51.731,57.3936)"><path
             d="m 0.00865006,0 c -0.03,0.786 -0.691,1.399 -1.47800006,1.37 -0.786,-0.03 -1.399,-0.692 -1.369,-1.478 0.03,-0.786 0.691,-1.399 1.477,-1.37 0.78700006,0.03 1.40000006,0.692 1.37000006,1.478"
             style="fill:#687176;fill-opacity:1;fill-rule:nonzero;stroke:none"
             id="path160" /></g><g
           id="g162"
           transform="translate(51.3853,38.3868)"><path
             d="m 0.02106944,0 c -0.03,0.786 -0.691,1.399 -1.47700004,1.37 -0.787,-0.03 -1.4,-0.691 -1.37,-1.478 0.03,-0.786 0.691,-1.399 1.477,-1.37 0.78700004,0.03 1.40000004,0.692 1.37000004,1.478"
             style="fill:#687176;fill-opacity:1;fill-rule:nonzero;stroke:none"
             id="path164" /></g><g
           id="g166"
           transform="translate(58.0786,38.6402)"><path
             d="m 0.0292777,0 c -0.0299999978,0.786 -0.691,1.399 -1.4779999,1.37 -0.786,-0.03 -1.399,-0.692 -1.369,-1.478 0.03,-0.786 0.691,-1.399 1.477,-1.37 0.7869999,0.03 1.3999999,0.692 1.3699999,1.478"
             style="fill:#687176;fill-opacity:1;fill-rule:nonzero;stroke:none"
             id="path168" /></g><g
           id="g170"
           transform="translate(42.6533,49.5904)"><path
             d="m 0.00513388,0 c -0.029,0.787 -0.691,1.4 -1.47700008,1.37 -0.786,-0.03 -1.399,-0.691 -1.37,-1.477 0.03,-0.787 0.691,-1.4 1.477,-1.37 0.78700008,0.03 1.40000008,0.691 1.37000008,1.477"
             style="fill:#687176;fill-opacity:1;fill-rule:nonzero;stroke:none"
             id="path172" /></g><g
           id="g174"
           transform="translate(41.1523,33.4766)"><path
             d="m 0.00229266,0 c -0.03,0.786 -0.691,1.399 -1.47800006,1.37 -0.786,-0.03 -1.399,-0.692 -1.369,-1.478 0.03,-0.786 0.691,-1.399 1.477,-1.37 0.78700006,0.03 1.40000006,0.692 1.37000006,1.478"
             style="fill:#687176;fill-opacity:1;fill-rule:nonzero;stroke:none"
             id="path176" /></g><g
           id="g178"
           transform="translate(53.9702,24.128)"><path
             d="m 0.00455912,0 c -0.03,0.786 -0.691,1.399 -1.47799992,1.37 -0.786,-0.03 -1.399,-0.691 -1.369,-1.477 0.03,-0.787 0.691,-1.4 1.477,-1.371 0.78699992,0.03 1.39999992,0.692 1.36999992,1.478"
             style="fill:#687176;fill-opacity:1;fill-rule:nonzero;stroke:none"
             id="path180" /></g><g
           id="g182"
           transform="translate(68.4922,18.2027)"><path
             d="M 5.8861678e-5,0 C -0.02994114,0.787 -0.69094114,1.399 -1.4779412,1.37 c -0.786,-0.03 -1.399,-0.691 -1.369,-1.477 0.03,-0.787 0.691,-1.4 1.477,-1.37 0.78700006,0.03 1.40000006,0.691 1.370000061678,1.477"
             style="fill:#687176;fill-opacity:1;fill-rule:nonzero;stroke:none"
             id="path184" /></g><g
           id="g186"
           transform="translate(161.7759,58.3668)"><path
             d="M 0,0 15.591,-9.026 32.002,0 35.763,-4.513 21.062,-12.24 35.763,-20.309 31.797,-24.754 15.728,-15.522 0,-24.754 l -3.761,4.308 13.608,8.069 -13.608,8.001"
             style="fill:#000f23;fill-opacity:1;fill-rule:nonzero;stroke:none"
             id="path188" /></g><g
           id="g190"
           transform="translate(241.291,48.8477)"><path
             d="m 0,0 c -4.807,-0.002 -9.547,0.037 -14.23,0.108 v 2.714 c 3.831,0.711 8.526,1.275 13.891,1.264 C 4.9,4.077 9.495,3.521 13.263,2.822 V 0.109 C 8.893,0.042 4.478,0.002 0,0 M 29.124,0.484 C 25.641,0.37 22.107,0.282 18.55,0.207 V 7.393 C 13.351,8.438 6.931,9.295 -0.435,9.338 -8.306,9.384 -15.13,8.487 -20.575,7.393 V 0.229 c -3.199,0.071 -6.379,0.152 -9.517,0.255 v -5.709 c 3.115,0.163 6.3,0.293 9.517,0.408 v -9.281 h 6.345 v 9.473 c 4.587,0.112 9.26,0.177 14.037,0.174 4.576,-0.002 9.053,-0.068 13.456,-0.174 v -9.473 h 5.287 v 9.316 c 3.58,-0.121 7.119,-0.262 10.574,-0.443 z"
             style="fill:#000f23;fill-opacity:1;fill-rule:nonzero;stroke:none"
             id="path192" /></g><g
           id="g194"
           transform="translate(325.4004,56.442)"><path
             d="M 0,0 C -5.333,1.015 -11.898,1.834 -19.416,1.845 -27.062,1.855 -33.729,1.026 -39.124,0 v -5.34 c 4.563,0.776 9.902,1.395 15.861,1.585 v -17.937 h 6.344 v 17.97 C -10.531,-3.867 -4.837,-4.518 0,-5.34 Z"
             style="fill:#000f23;fill-opacity:1;fill-rule:nonzero;stroke:none"
             id="path196" /></g><g
           id="g198"
           transform="translate(124.6011,54.1026)"><path
             d="M 0,0 C 6.674,-0.09 12.536,-0.855 17.366,-1.8 V 2.676 C 11.82,3.74 4.922,4.592 -3.005,4.519 -10.105,4.454 -16.339,3.661 -21.469,2.676 v -19.779 c 5.042,-1.061 11.319,-1.951 18.548,-2.018 7.998,-0.073 14.886,0.882 20.287,2.018 v 4.62 c -4.968,-0.893 -10.867,-1.595 -17.515,-1.691 -5.798,-0.084 -11.021,0.309 -15.53,0.899 -0.019,0.823 -0.029,1.663 -0.028,2.518 0,0.363 0.005,0.721 0.009,1.079 3.847,0.322 8.02,0.53 12.488,0.545 4.978,0.017 9.604,-0.204 13.821,-0.564 v 5.184 c -4.26,-0.291 -8.839,-0.463 -13.7,-0.453 -4.452,0.01 -8.659,0.174 -12.601,0.438 0.01,1.122 0.02,2.395 0.03,3.472 C -11.201,-0.392 -5.924,0.08 0,0"
             style="fill:#000f23;fill-opacity:1;fill-rule:nonzero;stroke:none"
             id="path200" /></g><g
           id="g202"
           transform="translate(368.8379,48.8121)"><path
             d="m 0,0 c -4.729,-0.002 -9.393,0.037 -14.003,0.105 v 2.91 C -10.142,3.725 -5.408,4.289 0,4.279 5.282,4.269 9.914,3.713 13.712,3.015 v -2.9 C 9.196,0.044 4.63,0.002 0,0 M 29.271,0.486 C 25.97,0.378 22.623,0.294 19.255,0.221 V 7.585 C 14.008,8.63 7.529,9.487 0.098,9.53 -7.846,9.576 -14.732,8.679 -20.227,7.585 V 0.221 c -3.368,0.073 -6.715,0.157 -10.016,0.265 v -5.737 c 3.275,0.171 6.629,0.307 10.016,0.424 v -9.079 h 6.224 v 9.264 c 4.516,0.108 9.11,0.171 13.809,0.169 4.73,-0.003 9.36,-0.07 13.906,-0.184 v -9.249 h 5.543 v 9.079 c 3.388,-0.117 6.74,-0.253 10.016,-0.424 z"
             style="fill:#000f23;fill-opacity:1;fill-rule:nonzero;stroke:none"
             id="path204" /></g></g></g></g></svg>
